<?xml version="1.0" standalone="no"?>
<!DOCTYPE svg PUBLIC "-//W3C//DTD SVG 20010904//EN"
 "http://www.w3.org/TR/2001/REC-SVG-20010904/DTD/svg10.dtd">
<svg version="1.0" xmlns="http://www.w3.org/2000/svg"
 width="731.000000pt" height="731.000000pt" viewBox="0 0 731.000000 731.000000"
 preserveAspectRatio="xMidYMid meet">
<metadata>
Created by potrace 1.14, written by Peter Selinger 2001-2017
</metadata>
<g transform="translate(0.000000,731.000000) scale(0.100000,-0.100000)"
fill="#000000" stroke="none">
<path d="M3629 5880 c-70 -37 -184 -187 -309 -405 -93 -161 -300 -589 -365
-755 -77 -195 -110 -254 -176 -321 -103 -103 -182 -142 -584 -284 -350 -125
-769 -295 -799 -325 -13 -13 19 -57 56 -76 28 -14 53 -16 173 -10 77 3 190 10
250 16 61 5 181 9 268 9 86 1 157 5 157 10 0 5 -36 32 -80 61 -44 29 -79 54
-78 55 10 8 500 186 503 183 7 -6 -97 -279 -333 -874 -296 -746 -389 -1000
-447 -1214 -41 -156 -32 -214 45 -284 86 -77 200 -105 283 -68 30 13 51 31 62
52 9 17 124 300 255 628 237 594 435 1075 547 1332 59 134 60 135 129 188 129
98 319 173 443 175 34 1 82 -8 124 -22 67 -23 69 -24 93 -80 110 -246 147
-730 103 -1344 l-11 -158 26 -52 c51 -104 222 -278 259 -264 16 6 22 65 38
392 32 674 -63 1158 -298 1515 -130 198 -312 350 -451 376 l-33 6 58 43 c177
131 548 308 1296 619 515 214 677 278 693 272 11 -4 13 -19 9 -73 -8 -94 -2
-100 74 -73 61 23 111 66 111 96 0 29 -30 72 -64 93 -104 64 -279 87 -441 56
-222 -41 -731 -243 -1525 -603 -96 -44 -176 -78 -178 -77 -1 1 58 168 132 371
170 470 236 663 236 695 0 48 -41 91 -110 113 -79 26 -103 27 -141 6z"/>
</g>
</svg>
